{"title":"The Hobbit 2 2013 DVDrip English Klam","uid":9796229,"size":2525608658,"categoryP":"video","categoryS":"movies","magnet":"?xt=urn:btih:34882ed8797ece9c6269249d387c7bcacefa9295&amp;dn=The+Hobbit+2+2013+DVDrip+English+Klam&amp;tr=udp%3A%2F%2Ftracker.openbittorrent.com%3A80&amp;tr=udp%3A%2F%2Fopen.demonii.com%3A1337&amp;tr=udp%3A%2F%2Ftracker.coppersurfer.tk%3A6969&amp;tr=udp%3A%2F%2Fexodus.desync.com%3A6969","seeders":2,"leechers":0,"uploader":"Klambake","files":-1,"time":1395323822,"description":"With: Martin Freeman, Benedict Cumberbatch and Ian McKellen\n\nNa een succesvolle doortocht over en onder de Mistige Bergen, moeten Thorin en zijn gezelschap beroep doen op een machtige vreemdeling vooraleer ze de gevaren van Demsterwold kunnen trotseren - zonder hun tovenaar. Als ze Meerstad bereiken zal de hobbit Bilbo Balings zijn afspraak met de Dwergen moeten nakomen. Het gezelschap moet de reis naar de Eenzame Berg voltooien en Balings moet de Geheime Deur zoeken die hem toegang verleent tot de schat van de draak Smaug. En waar is Gandalf heen? En wat is zijn geheime zaak in het Zuiden?\n\nThe dwarves, along with Bilbo Baggins and Gandalf the Grey, continue their quest to reclaim Erebor, their homeland, from Smaug. Bilbo Baggins is in possession of a mysterious and magical ring.\n &lt;a href=&quot;\nhttp://www.imdb.com/title/tt1170358&quot; rel=&quot;nofollow&quot; target=&quot;_NEW&quot;&gt;\nhttp://www.imdb.com/title/tt1170358&lt;/a&gt;\t\n\n------------------------ Dutch Friends ------------------------\n---------------------------------------------------------------\n- Bezoek ook eens mijn vrienden op: &lt;a href=&quot; http://www.Film-Test.nl&quot; rel=&quot;nofollow&quot; target=&quot;_NEW&quot;&gt; http://www.Film-Test.nl&lt;/a&gt; --\n----- voor mijn Nederlandse Sync. ondertitels ---- en meer ----\n------- http://www.Film-Test.nl ---- Over Films en meer -------\n---------------------------------------------------------------\n\nGeneral:\n\nComplete name                            : The Hobbit 2The Desolation of Smaug.avi\nFormat                                   : AVI\nFormat/Info                              : Audio Video Interleave\nFile size                                : 2.35 GiB\nDuration                                 : 2h 41mn\nOverall bit rate                         : 2 087 Kbps\n\nVideo:\n\nFormat                                   : MPEG-4 Visual\nFormat profile                           : Simple@L3\nFormat settings, BVOP                    : No\nFormat settings, QPel                    : No\nFormat settings, GMC                     : No warppoints\nFormat settings, Matrix                  : Default (H.263)\nCodec ID                                 : XVID\nCodec ID/Hint                            : XviD\nDuration                                 : 2h 41mn\nSource duration                          : 2h 41mn\nBit rate                                 : 1 629 Kbps\nWidth                                    : 720 pixels\nHeight                                   : 304 pixels\nDisplay aspect ratio                     : 2.35:1\nFrame rate                               : 23.976 fps\nColor space                              : YUV\nChroma subsampling                       : 4:2:0\nBit depth                                : 8 bits\nScan type                                : Progressive\nCompression mode                         : Lossy\nBits/(Pixel*Frame)                       : 0.310\nStream size                              : 1.83 GiB (78%)\nWriting library                          : XviD 1.1.2 (UTC 2006-11-01)\n\nAudio:\n\nFormat                                   : AC-3\nFormat/Info                              : Audio Coding 3\nMode extension                           : CM (complete main)\nFormat settings, Endianness              : Big\nCodec ID                                 : 2000\nDuration                                 : 2h 41mn\nBit rate mode                            : Constant\nBit rate                                 : 448 Kbps\nChannel(s)                               : 6 channels\nChannel positions                        : Front: L C R, Side: L R, LFE\nSampling rate                            : 48.0 KHz\nBit depth                                : 16 bits\nCompression mode                         : Lossy\nStream size                              : 517 MiB (21%)\nAlignment                                : Aligned on interleaves\nInterleave, duration                     : 32 ms (0.77 video frame)\n","torrent":{"xt":"urn:btih:34882ed8797ece9c6269249d387c7bcacefa9295","amp;dn":"The+Hobbit+2+2013+DVDrip+English+Klam","amp;tr":["udp%3A%2F%2Ftracker.openbittorrent.com%3A80","udp%3A%2F%2Fopen.demonii.com%3A1337","udp%3A%2F%2Ftracker.coppersurfer.tk%3A6969","udp%3A%2F%2Fexodus.desync.com%3A6969"],"infoHash":"34882ed8797ece9c6269249d387c7bcacefa9295","infoHashBuffer":{"type":"Buffer","data":[52,136,46,216,121,126,206,156,98,105,36,157,56,124,123,202,206,250,146,149]},"announce":[],"urlList":[]}}